<?xml version="1.0" encoding="UTF-8"?>
<svg id="Layer_1" xmlns="http://www.w3.org/2000/svg" viewBox="0 0 1378 318">
  <g>
    <path d="M159,317.5C71.6,317.5.5,246.4.5,159S71.6.5,159,.5s158.5,71.1,158.5,158.5-71.1,158.5-158.5,158.5Z"/>
    <path d="M159,1c42.2,0,81.88,16.43,111.72,46.28,29.84,29.84,46.28,69.52,46.28,111.72s-16.43,81.88-46.28,111.72c-29.84,29.84-69.52,46.28-111.72,46.28s-81.88-16.43-111.72-46.28C17.43,240.88,1,201.2,1,159S17.43,77.12,47.28,47.28C77.12,17.43,116.8,1,159,1M159,0C71.19,0,0,71.19,0,159s71.19,159,159,159,159-71.19,159-159S246.81,0,159,0h0Z"/>
  </g>
  <g>
    <rect x="249.5" y="138.5" width="1128" height="57"/>
    <path d="M1377,139v56H250v-56h1127M1378,138H249v58h1129v-58h0Z"/>
  </g>
</svg>